<?xml version="1.0" encoding="UTF-8" standalone="no"?>
<!DOCTYPE svg PUBLIC "-//W3C//DTD SVG 1.1//EN"
 "http://www.w3.org/Graphics/SVG/1.1/DTD/svg11.dtd">
<!-- Generated by graphviz version 2.47.0 (20210316.0004)
 -->
<!-- Pages: 1 -->
<svg width="129pt" height="214pt"
 viewBox="0.00 0.00 129.40 213.70" xmlns="http://www.w3.org/2000/svg" xmlns:xlink="http://www.w3.org/1999/xlink">
<g id="graph0" class="graph" transform="scale(1 1) rotate(0) translate(4 209.7)">
<polygon fill="white" stroke="transparent" points="-4,4 -4,-209.7 125.4,-209.7 125.4,4 -4,4"/>
<!-- fake0 -->
<g id="node1" class="node">
<title>fake0</title>
</g>
<!-- s2 -->
<g id="node4" class="node">
<title>s2</title>
<ellipse fill="none" stroke="black" cx="30.55" cy="-109.85" rx="27" ry="18"/>
<text text-anchor="middle" x="30.55" y="-106.15" font-family="Times New Roman,serif" font-size="14.00">s2</text>
</g>
<!-- fake0&#45;&gt;s2 -->
<g id="edge1" class="edge">
<title>fake0&#45;&gt;s2</title>
<path fill="none" stroke="black" stroke-width="2" d="M30.55,-169.49C30.55,-160.27 30.55,-148.71 30.55,-138.29"/>
<polygon fill="black" stroke="black" stroke-width="2" points="34.05,-137.99 30.55,-127.99 27.05,-137.99 34.05,-137.99"/>
</g>
<!-- s1 -->
<g id="node2" class="node">
<title>s1</title>
<ellipse fill="none" stroke="black" cx="98.55" cy="-109.85" rx="18.72" ry="18.72"/>
<ellipse fill="none" stroke="black" cx="98.55" cy="-109.85" rx="22.7" ry="22.7"/>
<text text-anchor="middle" x="98.55" y="-106.15" font-family="Times New Roman,serif" font-size="14.00">s1</text>
</g>
<!-- s3 -->
<g id="node3" class="node">
<title>s3</title>
<ellipse fill="none" stroke="black" cx="64.55" cy="-18" rx="27" ry="18"/>
<text text-anchor="middle" x="64.55" y="-14.3" font-family="Times New Roman,serif" font-size="14.00">s3</text>
</g>
<!-- s1&#45;&gt;s3 -->
<g id="edge2" class="edge">
<title>s1&#45;&gt;s3</title>
<path fill="none" stroke="black" d="M90.66,-88.01C85.8,-75.16 79.53,-58.58 74.35,-44.89"/>
<polygon fill="black" stroke="black" points="77.62,-43.65 70.8,-35.53 71.07,-46.12 77.62,-43.65"/>
<text text-anchor="middle" x="87.05" y="-57.8" font-family="Times New Roman,serif" font-size="14.00">E</text>
</g>
<!-- s2&#45;&gt;s3 -->
<g id="edge3" class="edge">
<title>s2&#45;&gt;s3</title>
<path fill="none" stroke="black" d="M36.94,-91.95C41.91,-78.81 48.9,-60.36 54.6,-45.3"/>
<polygon fill="black" stroke="black" points="58.03,-46.11 58.3,-35.52 51.48,-43.63 58.03,-46.11"/>
<text text-anchor="middle" x="56.05" y="-57.8" font-family="Times New Roman,serif" font-size="14.00">E</text>
</g>
</g>
</svg>
